<?xml version="1.0" encoding="UTF-8"?>
<svg xmlns="http://www.w3.org/2000/svg"
     xmlns:xlink="http://www.w3.org/1999/xlink"
     xmlns:gadfly="http://www.gadflyjl.org/ns"
     version="1.2"
     width="300mm" height="300mm" viewBox="0 0 300 300"
     stroke="none"
     fill="#000000"
     stroke-width="0.3"
     font-size="3.88"
>
<g stroke-width="0.6" fill="#000000" fill-opacity="0.000" stroke="#D3D3D3" id="img-1e98d858-1">
  <g transform="translate(161.51,143.39)">
    <path fill="none" d="M-32.19,17.64 L 32.19 -17.64" class="primitive"/>
  </g>
  <g transform="translate(97.47,144.79)">
    <path fill="none" d="M-21.33,-15.56 L 21.33 15.56" class="primitive"/>
  </g>
  <g transform="translate(82.14,105.4)">
    <path fill="none" d="M-8.05,14.68 L 8.05 -14.68" class="primitive"/>
  </g>
  <g transform="translate(97.02,124.13)">
    <path fill="none" d="M-19.7,1.08 L 19.7 -1.08" class="primitive"/>
  </g>
  <g transform="translate(146.19,103.99)">
    <path fill="none" d="M-47.1,-16.67 L 47.1 16.67" class="primitive"/>
  </g>
  <g transform="translate(161.07,122.73)">
    <path fill="none" d="M-31.86,-0.02 L 31.86 0.02" class="primitive"/>
  </g>
  <g transform="translate(108.26,141.6)">
    <path fill="none" d="M-12.02,-17.3 L 12.02 17.3" class="primitive"/>
  </g>
  <g transform="translate(92.93,102.2)">
    <path fill="none" d="M-0.16,10.72 L 0.16 -10.72" class="primitive"/>
  </g>
  <g transform="translate(107.82,120.94)">
    <path fill="none" d="M-8.94,-1.04 L 8.94 1.04" class="primitive"/>
  </g>
  <g transform="translate(101.9,154.96)">
    <path fill="none" d="M-16.18,-6.69 L 16.18 6.69" class="primitive"/>
  </g>
  <g transform="translate(86.57,115.56)">
    <path fill="none" d="M-5.29,24.22 L 5.29 -24.22" class="primitive"/>
  </g>
  <g transform="translate(101.45,134.3)">
    <path fill="none" d="M-16.01,8.62 L 16.01 -8.62" class="primitive"/>
  </g>
  <g transform="translate(220.25,106.97)">
    <path fill="none" d="M16.07,-12.04 L -16.07 12.04" class="primitive"/>
  </g>
  <g transform="translate(237.09,122.88)">
    <path fill="none" d="M31.66,0.1 L -31.66 -0.1" class="primitive"/>
  </g>
  <g transform="translate(59.1,71.6)">
    <path fill="none" d="M-28.29,-11.31 L 28.29 11.31" class="primitive"/>
  </g>
  <g transform="translate(73.01,55.12)">
    <path fill="none" d="M-16.7,-24.93 L 16.7 24.93" class="primitive"/>
  </g>
  <g transform="translate(206.18,138.18)">
    <path fill="none" d="M4.41,9.73 L -4.41 -9.73" class="primitive"/>
  </g>
  <g transform="translate(192.73,172.74)">
    <path fill="none" d="M-5.65,43.79 L 5.65 -43.79" class="primitive"/>
  </g>
  <g transform="translate(225.86,91.07)">
    <path fill="none" d="M22.66,-26.91 L -22.66 26.91" class="primitive"/>
  </g>
  <g transform="translate(196.85,83.19)">
    <path fill="none" d="M-1.96,-33.32 L 1.96 33.32" class="primitive"/>
  </g>
  <g transform="translate(185.48,94.45)">
    <path fill="none" d="M-10.97,-22.68 L 10.97 22.68" class="primitive"/>
  </g>
  <g transform="translate(233.56,137.68)">
    <path fill="none" d="M28.65,12.44 L -28.65 -12.44" class="primitive"/>
  </g>
  <g transform="translate(205.19,243.94)">
    <path fill="none" d="M14.75,16.54 L -14.75 -16.54" class="primitive"/>
  </g>
  <g transform="translate(211.54,239.15)">
    <path fill="none" d="M9.84,20.37 L -9.84 -20.37" class="primitive"/>
  </g>
  <g transform="translate(199.08,167.95)">
    <path fill="none" d="M-0.08,38.95 L 0.08 -38.95" class="primitive"/>
  </g>
  <g transform="translate(215.66,198.52)">
    <path fill="none" d="M-11.97,10.51 L 11.97 -10.51" class="primitive"/>
  </g>
  <g transform="translate(189.48,248.86)">
    <path fill="none" d="M2.44,19.93 L -2.44 -19.93" class="primitive"/>
  </g>
  <g transform="translate(195.83,244.07)">
    <path fill="none" d="M-2.52,24.71 L 2.52 -24.71" class="primitive"/>
  </g>
  <g transform="translate(236.73,106.94)">
    <path fill="none" d="M31.79,-13.39 L -31.79 13.39" class="primitive"/>
  </g>
  <g transform="translate(210.59,88.02)">
    <path fill="none" d="M9.46,-28.79 L -9.46 28.79" class="primitive"/>
  </g>
  <g transform="translate(215.75,153.32)">
    <path fill="none" d="M13.59,25.08 L -13.59 -25.08" class="primitive"/>
  </g>
  <g transform="translate(232.33,183.89)">
    <path fill="none" d="M6.25,0 L -6.25 0" class="primitive"/>
  </g>
  <g transform="translate(134.22,198.08)">
    <path fill="none" d="M8.55,28.07 L -8.55 -28.07" class="primitive"/>
  </g>
  <g transform="translate(165.43,227.43)">
    <path fill="none" d="M-14.75,3.33 L 14.75 -3.33" class="primitive"/>
  </g>
  <g transform="translate(171.79,222.64)">
    <path fill="none" d="M-21.3,7.43 L 21.3 -7.43" class="primitive"/>
  </g>
  <g transform="translate(137.59,187.93)">
    <path fill="none" d="M10.63,18.48 L -10.63 -18.48" class="primitive"/>
  </g>
  <g transform="translate(168.8,217.28)">
    <path fill="none" d="M-11.5,-3.59 L 11.5 3.59" class="primitive"/>
  </g>
  <g transform="translate(175.16,212.49)">
    <path fill="none" d="M-17.58,-0.49 L 17.58 0.49" class="primitive"/>
  </g>
</g>
<g stroke-width="0.6" stroke="#D3D3D3" id="img-1e98d858-2">
  <g transform="translate(186.83,129.52)">
    <path fill="none" d="M-5.49,-1.87 L 6.87 -3.76 -1.38 5.63" class="primitive"/>
  </g>
  <g transform="translate(112.47,155.74)">
    <path fill="none" d="M-0.64,-5.76 L 6.33 4.61 -5.68 1.15" class="primitive"/>
  </g>
  <g transform="translate(86.42,97.58)">
    <path fill="none" d="M-5.63,1.38 L 3.76 -6.87 1.87 5.49" class="primitive"/>
  </g>
  <g transform="translate(108.9,123.48)">
    <path fill="none" d="M-4.14,-4.05 L 7.82 -0.43 -3.68 4.48" class="primitive"/>
  </g>
  <g transform="translate(185.91,118.05)">
    <path fill="none" d="M-2.26,-5.34 L 7.38 2.61 -5.12 2.72" class="primitive"/>
  </g>
  <g transform="translate(185.1,122.75)">
    <path fill="none" d="M-3.91,-4.28 L 7.83 0 -3.92 4.27" class="primitive"/>
  </g>
  <g transform="translate(115.81,152.47)">
    <path fill="none" d="M1.28,-5.65 L 4.47 6.43 -5.75 -0.78" class="primitive"/>
  </g>
  <g transform="translate(92.98,99.32)">
    <path fill="none" d="M-4.33,3.85 L 0.12 -7.83 4.22 3.98" class="primitive"/>
  </g>
  <g transform="translate(108.98,121.08)">
    <path fill="none" d="M-3.39,-4.7 L 7.78 0.91 -4.39 3.79" class="primitive"/>
  </g>
  <g transform="translate(110.84,158.65)">
    <path fill="none" d="M-1.98,-5.45 L 7.24 2.99 -5.25 2.45" class="primitive"/>
  </g>
  <g transform="translate(90.19,98.99)">
    <path fill="none" d="M-5.01,2.91 L 1.67 -7.65 3.34 4.74" class="primitive"/>
  </g>
  <g transform="translate(110.57,129.39)">
    <path fill="none" d="M-5.47,-1.91 L 6.89 -3.71 -1.42 5.62" class="primitive"/>
  </g>
  <g transform="translate(210.45,114.31)">
    <path fill="none" d="M5.7,1.08 L -6.27 4.69 0.57 -5.77" class="primitive"/>
  </g>
  <g transform="translate(213.26,122.8)">
    <path fill="none" d="M3.9,4.29 L -7.83 -0.03 3.93 -4.26" class="primitive"/>
  </g>
  <g transform="translate(80.12,80.01)">
    <path fill="none" d="M-2.05,-5.42 L 7.27 2.91 -5.22 2.52" class="primitive"/>
  </g>
  <g transform="translate(85.35,73.54)">
    <path fill="none" d="M1.37,-5.63 L 4.36 6.51 -5.73 -0.87" class="primitive"/>
  </g>
  <g transform="translate(205,135.58)">
    <path fill="none" d="M-2.28,5.33 L -3.23 -7.13 5.51 1.8" class="primitive"/>
  </g>
  <g transform="translate(197.38,136.72)">
    <path fill="none" d="M-4.74,3.34 L 1 -7.77 3.74 4.43" class="primitive"/>
  </g>
  <g transform="translate(208.25,111.98)">
    <path fill="none" d="M5.79,-0.24 L -5.04 5.99 -0.75 -5.75" class="primitive"/>
  </g>
  <g transform="translate(198.35,108.7)">
    <path fill="none" d="M4.04,-4.16 L 0.46 7.82 -4.5 -3.66" class="primitive"/>
  </g>
  <g transform="translate(193.05,110.08)">
    <path fill="none" d="M2.14,-5.39 L 3.41 7.05 -5.55 -1.66" class="primitive"/>
  </g>
  <g transform="translate(212.1,128.36)">
    <path fill="none" d="M1.89,5.48 L -7.18 -3.12 5.29 -2.36" class="primitive"/>
  </g>
  <g transform="translate(195.65,233.24)">
    <path fill="none" d="M-0.58,5.77 L -5.21 -5.84 5.8 0.08" class="primitive"/>
  </g>
  <g transform="translate(205.11,225.83)">
    <path fill="none" d="M-2.15,5.39 L -3.41 -7.05 5.55 1.67" class="primitive"/>
  </g>
  <g transform="translate(199.15,136.83)">
    <path fill="none" d="M-4.28,3.91 L 0.02 -7.83 4.27 3.92" class="primitive"/>
  </g>
  <g transform="translate(221.74,193.18)">
    <path fill="none" d="M-5.76,-0.63 L 5.89 -5.16 -0.12 5.8" class="primitive"/>
  </g>
  <g transform="translate(187.99,236.7)">
    <path fill="none" d="M-3.77,4.41 L -0.95 -7.77 4.72 3.37" class="primitive"/>
  </g>
  <g transform="translate(197.56,227.16)">
    <path fill="none" d="M-4.65,3.46 L 0.79 -7.79 3.86 4.33" class="primitive"/>
  </g>
  <g transform="translate(212.16,117.29)">
    <path fill="none" d="M5.27,2.42 L -7.22 3.04 1.95 -5.46" class="primitive"/>
  </g>
  <g transform="translate(203.58,109.38)">
    <path fill="none" d="M5.28,-2.39 L -2.44 7.44 -2.84 -5.05" class="primitive"/>
  </g>
  <g transform="translate(205.89,135.13)">
    <path fill="none" d="M-1.89,5.48 L -3.73 -6.88 5.62 1.4" class="primitive"/>
  </g>
  <g transform="translate(218.25,183.89)">
    <path fill="none" d="M-3.92,-4.28 L 7.83 -0 -3.92 4.28" class="primitive"/>
  </g>
  <g transform="translate(127.95,177.5)">
    <path fill="none" d="M-2.95,4.99 L -2.28 -7.49 5.23 2.5" class="primitive"/>
  </g>
  <g transform="translate(172.54,225.83)">
    <path fill="none" d="M-4.76,-3.31 L 7.64 -1.72 -2.88 5.03" class="primitive"/>
  </g>
  <g transform="translate(185.69,217.79)">
    <path fill="none" d="M-5.11,-2.75 L 7.39 -2.58 -2.29 5.33" class="primitive"/>
  </g>
  <g transform="translate(130.87,176.24)">
    <path fill="none" d="M-1.75,5.53 L -3.9 -6.79 5.66 1.26" class="primitive"/>
  </g>
  <g transform="translate(172.83,218.54)">
    <path fill="none" d="M-2.47,-5.25 L 7.48 2.33 -5.01 2.92" class="primitive"/>
  </g>
  <g transform="translate(184.91,212.76)">
    <path fill="none" d="M-3.8,-4.38 L 7.83 0.22 -4.03 4.17" class="primitive"/>
  </g>
</g>
<g font-size="4" stroke="#000000" stroke-opacity="0.000" fill="#000000" id="img-1e98d858-3">
</g>
<g stroke-width="0" stroke="#000000" stroke-opacity="0.000" fill="#40E0D0" id="img-1e98d858-4">
  <g transform="translate(123.85,164.03)">
    <circle cx="0" cy="0" r="6" class="primitive"/>
  </g>
  <g transform="translate(71.09,125.55)">
    <circle cx="0" cy="0" r="6" class="primitive"/>
  </g>
  <g transform="translate(93.19,85.24)">
    <circle cx="0" cy="0" r="6" class="primitive"/>
  </g>
  <g transform="translate(122.96,122.71)">
    <circle cx="0" cy="0" r="6" class="primitive"/>
  </g>
  <g transform="translate(92.67,119.17)">
    <circle cx="0" cy="0" r="6" class="primitive"/>
  </g>
  <g transform="translate(79.95,145.88)">
    <circle cx="0" cy="0" r="6" class="primitive"/>
  </g>
  <g transform="translate(199.18,122.75)">
    <circle cx="0" cy="0" r="6" class="primitive"/>
  </g>
  <g transform="translate(241.33,91.19)">
    <circle cx="0" cy="0" r="6" class="primitive"/>
  </g>
  <g transform="translate(275,123)">
    <circle cx="0" cy="0" r="6" class="primitive"/>
  </g>
  <g transform="translate(25,57.96)">
    <circle cx="0" cy="0" r="6" class="primitive"/>
  </g>
  <g transform="translate(52.84,25)">
    <circle cx="0" cy="0" r="6" class="primitive"/>
  </g>
  <g transform="translate(213.17,153.6)">
    <circle cx="0" cy="0" r="6" class="primitive"/>
  </g>
  <g transform="translate(186.27,222.73)">
    <circle cx="0" cy="0" r="6" class="primitive"/>
  </g>
  <g transform="translate(252.55,59.38)">
    <circle cx="0" cy="0" r="6" class="primitive"/>
  </g>
  <g transform="translate(194.52,43.63)">
    <circle cx="0" cy="0" r="6" class="primitive"/>
  </g>
  <g transform="translate(171.79,66.14)">
    <circle cx="0" cy="0" r="6" class="primitive"/>
  </g>
  <g transform="translate(267.95,152.62)">
    <circle cx="0" cy="0" r="6" class="primitive"/>
  </g>
  <g transform="translate(224.1,265.15)">
    <circle cx="0" cy="0" r="6" class="primitive"/>
  </g>
  <g transform="translate(198.99,213.15)">
    <circle cx="0" cy="0" r="6" class="primitive"/>
  </g>
  <g transform="translate(192.68,275)">
    <circle cx="0" cy="0" r="6" class="primitive"/>
  </g>
  <g transform="translate(274.28,91.13)">
    <circle cx="0" cy="0" r="6" class="primitive"/>
  </g>
  <g transform="translate(222.01,53.29)">
    <circle cx="0" cy="0" r="6" class="primitive"/>
  </g>
  <g transform="translate(232.33,183.89)">
    <circle cx="0" cy="0" r="6" class="primitive"/>
  </g>
  <g transform="translate(144.59,232.13)">
    <circle cx="0" cy="0" r="6" class="primitive"/>
  </g>
  <g transform="translate(151.33,211.83)">
    <circle cx="0" cy="0" r="6" class="primitive"/>
  </g>
</g>
<g font-size="4" stroke="#000000" stroke-opacity="0.000" fill="#000000" id="img-1e98d858-5">
  <g transform="translate(123.85,164.03)">
    <g class="primitive">
      <text text-anchor="middle" dy="0.35em">111</text>
    </g>
  </g>
  <g transform="translate(71.09,125.55)">
    <g class="primitive">
      <text text-anchor="middle" dy="0.35em">45</text>
    </g>
  </g>
  <g transform="translate(93.19,85.24)">
    <g class="primitive">
      <text text-anchor="middle" dy="0.35em">123</text>
    </g>
  </g>
  <g transform="translate(122.96,122.71)">
    <g class="primitive">
      <text text-anchor="middle" dy="0.35em">125</text>
    </g>
  </g>
  <g transform="translate(92.67,119.17)">
    <g class="primitive">
      <text text-anchor="middle" dy="0.35em">75</text>
    </g>
  </g>
  <g transform="translate(79.95,145.88)">
    <g class="primitive">
      <text text-anchor="middle" dy="0.35em">101</text>
    </g>
  </g>
  <g transform="translate(199.18,122.75)">
    <g class="primitive">
      <text text-anchor="middle" dy="0.35em">127</text>
    </g>
  </g>
  <g transform="translate(241.33,91.19)">
    <g class="primitive">
      <text text-anchor="middle" dy="0.35em">55</text>
    </g>
  </g>
  <g transform="translate(275,123)">
    <g class="primitive">
      <text text-anchor="middle" dy="0.35em">110</text>
    </g>
  </g>
  <g transform="translate(25,57.96)">
    <g class="primitive">
      <text text-anchor="middle" dy="0.35em">107</text>
    </g>
  </g>
  <g transform="translate(52.84,25)">
    <g class="primitive">
      <text text-anchor="middle" dy="0.35em">115</text>
    </g>
  </g>
  <g transform="translate(213.17,153.6)">
    <g class="primitive">
      <text text-anchor="middle" dy="0.35em">124</text>
    </g>
  </g>
  <g transform="translate(186.27,222.73)">
    <g class="primitive">
      <text text-anchor="middle" dy="0.35em">126</text>
    </g>
  </g>
  <g transform="translate(252.55,59.38)">
    <g class="primitive">
      <text text-anchor="middle" dy="0.35em">121</text>
    </g>
  </g>
  <g transform="translate(194.52,43.63)">
    <g class="primitive">
      <text text-anchor="middle" dy="0.35em">31</text>
    </g>
  </g>
  <g transform="translate(171.79,66.14)">
    <g class="primitive">
      <text text-anchor="middle" dy="0.35em">117</text>
    </g>
  </g>
  <g transform="translate(267.95,152.62)">
    <g class="primitive">
      <text text-anchor="middle" dy="0.35em">63</text>
    </g>
  </g>
  <g transform="translate(224.1,265.15)">
    <g class="primitive">
      <text text-anchor="middle" dy="0.35em">91</text>
    </g>
  </g>
  <g transform="translate(198.99,213.15)">
    <g class="primitive">
      <text text-anchor="middle" dy="0.35em">119</text>
    </g>
  </g>
  <g transform="translate(192.68,275)">
    <g class="primitive">
      <text text-anchor="middle" dy="0.35em">103</text>
    </g>
  </g>
  <g transform="translate(274.28,91.13)">
    <g class="primitive">
      <text text-anchor="middle" dy="0.35em">61</text>
    </g>
  </g>
  <g transform="translate(222.01,53.29)">
    <g class="primitive">
      <text text-anchor="middle" dy="0.35em">109</text>
    </g>
  </g>
  <g transform="translate(232.33,183.89)">
    <g class="primitive">
      <text text-anchor="middle" dy="0.35em">95</text>
    </g>
  </g>
  <g transform="translate(144.59,232.13)">
    <g class="primitive">
      <text text-anchor="middle" dy="0.35em">62</text>
    </g>
  </g>
  <g transform="translate(151.33,211.83)">
    <g class="primitive">
      <text text-anchor="middle" dy="0.35em">47</text>
    </g>
  </g>
</g>
</svg>
